# xmcd
#
# Track frame offsets:
#	150
#	17390
#	34247
#	47283
#	63384
#	81400
#	99242
#	117287
#	138266
#	156309
#	174846
#	201146
#	221317
#	236930
#	253052
#	270967
#	287181
#
# Disc length: 4026 seconds
#
# Revision: 0
# Processed by: cddbd v1.5.2PL0 Copyright (c) Steve Scherf et al.
# Submitted via: audiograbber 1.83.01
#
DISCID=e40fb811
DTITLE=Various Artist - Pure... R&B Party [CD 4 of 4) (2013)
DYEAR=2013
DGENRE=R&B
TTITLE0=Christina Aguilera - Ain't No Other Man
TTITLE1=Britney Spears - Womanizer
TTITLE2=Jessica Mauboy - Burn
TTITLE3=Jordin Sparks - S.O.S. (Let The Music Play)
TTITLE4=Leona Lewis and Avicii - Collide
TTITLE5=Alexis Jordan - Good Girl
TTITLE6=TLC - No Scrubs
TTITLE7=SWV - I'm So Into You
TTITLE8=Tatyana Ali - Boy You Knock Me Out
TTITLE9=Joy Enriquez - Tell Me How You Feel
TTITLE10=Deborah Cox - Just Be Good To Me
TTITLE11=Toni Braxton - You're Makin' Me High
TTITLE12=Monica - So Gone
TTITLE13=Cher Lloyd - Want U Back
TTITLE14=DJ Jazzy Jeff and The Fresh Prince - Summertime
TTITLE15=Another Level - Bomb Diggy
TTITLE16=B2K - Bump That
EXTD=
EXTT0=
EXTT1=
EXTT2=
EXTT3=
EXTT4=
EXTT5=
EXTT6=
EXTT7=
EXTT8=
EXTT9=
EXTT10=
EXTT11=
EXTT12=
EXTT13=
EXTT14=
EXTT15=
EXTT16=
PLAYORDER=
